<?xml version="1.0" standalone="no"?>
<!DOCTYPE svg PUBLIC "-//W3C//DTD SVG 20010904//EN"
 "http://www.w3.org/TR/2001/REC-SVG-20010904/DTD/svg10.dtd">
<svg version="1.0" xmlns="http://www.w3.org/2000/svg"
 width="260.000000pt" height="260.000000pt" viewBox="0 0 260.000000 260.000000"
 preserveAspectRatio="xMidYMid meet">
<metadata>
Created by potrace 1.14, written by Peter Selinger 2001-2017
</metadata>
<g transform="translate(0.000000,260.000000) scale(0.100000,-0.100000)"
fill="#000000" stroke="none">
<path d="M1054 2581 c13 -14 12 -16 -9 -17 -16 -1 -22 2 -18 12 3 8 0 14 -6
14 -6 0 -10 -3 -10 -7 1 -5 1 -15 0 -23 -1 -12 -5 -11 -18 5 -13 16 -15 17
-10 3 7 -20 -8 -25 -19 -7 -9 16 -27 -17 -19 -34 4 -6 1 -5 -7 3 -7 8 -22 16
-33 18 l-20 4 20 -16 c19 -15 19 -15 -7 -10 -20 3 -31 -2 -43 -18 l-17 -23 7
25 c6 24 5 24 -9 6 -9 -10 -13 -24 -9 -30 3 -6 2 -8 -2 -3 -5 4 -19 0 -31 -8
-17 -11 -25 -12 -30 -3 -4 7 -3 8 4 4 8 -5 10 -1 5 10 -5 14 -8 13 -19 -7 -7
-13 -13 -20 -14 -14 0 5 -7 -1 -16 -13 -8 -12 -21 -22 -27 -22 -7 0 -6 4 3 10
9 6 10 10 3 10 -6 0 -18 -9 -26 -20 -8 -11 -17 -17 -20 -13 -4 3 -7 -2 -7 -12
0 -10 -3 -16 -6 -12 -6 5 -15 0 -49 -31 -8 -7 -16 -8 -19 -3 -4 5 -1 12 4 14
6 3 5 4 -2 3 -7 -2 -12 -11 -10 -21 3 -13 -1 -16 -13 -11 -13 5 -16 2 -11 -10
6 -15 4 -15 -11 -3 -15 12 -16 12 -10 -4 4 -11 3 -16 -3 -12 -6 3 -10 1 -10
-6 0 -8 -5 -7 -17 2 -15 13 -15 12 -3 -11 12 -22 12 -24 -3 -12 -13 11 -15 11
-13 0 1 -7 6 -20 11 -28 5 -9 -1 -7 -14 4 -19 17 -21 18 -15 3 4 -12 2 -17 -7
-15 -8 2 -13 -3 -11 -10 1 -8 -2 -11 -7 -8 -4 3 -25 -10 -45 -29 -39 -37 -40
-42 -3 -24 19 9 19 8 -3 -10 -13 -10 -29 -17 -35 -13 -5 3 -4 -1 3 -10 11 -14
10 -16 -7 -11 -13 3 -21 1 -21 -6 0 -7 5 -9 12 -5 7 4 8 3 4 -4 -4 -6 -14 -8
-24 -5 -15 6 -15 5 -3 -10 12 -15 12 -17 -3 -11 -9 4 -16 3 -15 -2 4 -22 -2
-34 -17 -34 -14 0 -15 -3 -3 -17 7 -10 10 -15 5 -11 -4 3 -16 -2 -27 -13 -22
-22 -25 -34 -6 -23 7 4 9 3 4 -2 -5 -5 -14 -9 -20 -9 -7 0 -13 -9 -15 -20 -2
-11 -6 -27 -9 -35 -3 -8 -5 -19 -4 -23 1 -5 -4 -5 -10 -2 -8 5 -8 10 0 18 6 6
11 15 11 21 0 5 -6 1 -14 -9 -8 -11 -11 -26 -8 -34 4 -10 1 -12 -7 -6 -10 6
-11 3 -2 -13 12 -23 15 -43 3 -26 -5 7 -14 5 -27 -9 l-20 -20 20 6 c14 5 12 1
-8 -14 -16 -12 -24 -25 -20 -32 13 -20 10 -64 -3 -64 -7 0 -10 5 -6 11 11 18
11 37 0 30 -5 -3 -7 -9 -4 -12 3 -3 1 -11 -6 -19 -8 -11 -7 -17 8 -28 18 -13
18 -14 -6 -9 -14 3 -21 2 -15 -3 18 -15 16 -33 -3 -26 -14 6 -15 4 -4 -9 10
-13 10 -18 1 -24 -8 -5 -9 -3 -4 6 6 9 4 11 -4 6 -9 -6 -8 -13 5 -27 15 -17
15 -19 2 -14 -9 4 -19 1 -24 -6 -4 -8 -3 -10 4 -5 7 4 12 2 12 -4 0 -6 5 -8
12 -4 7 4 8 3 4 -5 -4 -6 -12 -9 -17 -6 -5 4 -9 1 -9 -5 0 -6 -5 -8 -12 -4 -7
4 -8 3 -4 -5 4 -6 11 -9 15 -7 4 3 8 -1 8 -10 0 -10 -7 -12 -21 -8 -19 6 -18
4 4 -16 l25 -22 -25 6 c-23 6 -23 6 -7 -7 17 -15 24 -33 8 -23 -5 3 -12 -1
-15 -10 -5 -12 -2 -15 10 -10 15 6 15 4 3 -10 -7 -9 -14 -26 -16 -37 -2 -17
-1 -19 6 -7 5 8 7 18 4 24 -3 5 -1 6 6 2 9 -6 8 -14 -4 -33 -10 -14 -12 -23
-7 -19 6 3 14 1 18 -5 5 -8 3 -9 -5 -5 -8 6 -11 2 -9 -10 2 -11 -2 -18 -9 -17
-7 2 -10 -4 -7 -12 4 -8 10 -13 14 -10 13 8 6 -21 -9 -39 -12 -14 -12 -16 3
-10 21 8 21 -5 -1 -23 -10 -8 -13 -12 -8 -9 6 2 16 -4 23 -14 10 -16 9 -18 -3
-14 -20 8 -19 -3 1 -24 15 -14 15 -17 0 -27 -17 -13 -12 -25 7 -21 7 2 9 1 4
-1 -4 -3 -5 -9 -2 -13 3 -5 0 -12 -6 -16 -8 -5 -9 -3 -4 6 5 9 4 11 -3 6 -9
-5 -8 -13 3 -30 8 -12 12 -26 8 -29 -3 -4 -2 -7 4 -7 5 0 10 -6 10 -12 0 -7 4
-22 9 -32 6 -15 4 -17 -7 -11 -11 7 -12 6 -2 -7 7 -8 9 -19 5 -23 -4 -5 -2 -5
4 -2 7 4 14 0 17 -8 4 -10 1 -12 -11 -8 -12 4 -11 0 6 -16 26 -25 30 -40 5
-20 -15 13 -15 12 -5 -7 6 -12 8 -24 5 -28 -3 -3 2 -6 12 -6 17 0 17 -1 -1
-22 -10 -13 -12 -17 -4 -10 8 6 18 12 22 12 13 0 9 -28 -4 -33 -8 -3 -6 -6 4
-6 12 -1 15 -6 11 -18 -5 -11 -3 -14 6 -8 10 6 11 2 6 -16 -7 -22 -7 -23 10
-9 11 9 16 10 11 3 -4 -8 -2 -13 4 -13 7 0 10 -6 7 -12 -14 -34 -18 -52 -10
-43 4 6 17 11 28 13 16 2 17 1 5 -7 -12 -8 -12 -13 -2 -23 6 -6 12 -20 12 -29
0 -9 10 -19 22 -22 19 -5 20 -8 7 -23 -9 -12 -10 -15 -2 -10 12 7 17 -5 16
-40 0 -6 6 -11 13 -11 9 0 10 5 3 18 -5 10 -9 21 -9 26 1 4 7 -3 15 -17 9 -18
10 -29 3 -38 -8 -9 -7 -11 5 -6 12 4 15 1 12 -15 -4 -24 10 -37 21 -20 5 8 3
9 -6 4 -9 -5 -11 -4 -6 4 10 15 29 3 22 -14 -2 -7 4 -15 15 -18 13 -4 17 -10
12 -23 -5 -14 -3 -16 11 -11 9 4 15 3 12 -2 -6 -9 22 -26 37 -22 5 1 6 -3 3
-8 -3 -5 1 -14 10 -21 8 -7 12 -20 10 -27 -4 -11 0 -13 14 -8 11 4 20 3 19 -2
-3 -19 2 -33 12 -33 5 0 7 6 3 12 -5 9 -2 9 9 -1 9 -7 17 -19 17 -25 0 -6 -5
-4 -10 4 -5 8 -10 11 -10 5 0 -5 4 -16 9 -23 7 -11 9 -11 14 2 4 9 12 16 19
15 10 0 10 -2 0 -6 -18 -7 -4 -23 21 -23 17 0 19 -2 7 -9 -8 -6 -18 -7 -24 -4
-5 3 -6 1 -2 -6 4 -6 12 -9 17 -6 12 8 40 -20 31 -30 -4 -5 -1 -5 6 -1 7 4 10
11 7 16 -3 5 -1 12 5 15 6 4 10 3 9 -2 -4 -22 3 -33 21 -33 11 0 20 -5 20 -11
0 -5 -4 -7 -10 -4 -6 3 -7 -1 -3 -10 5 -14 8 -14 15 -3 7 10 11 10 15 1 2 -7
13 -13 24 -13 10 0 19 -4 19 -10 0 -5 10 -10 21 -10 19 0 20 -2 8 -17 -13 -15
-12 -15 9 -4 18 10 22 9 22 -4 0 -9 5 -13 10 -10 6 4 7 12 3 18 -4 7 0 6 10
-2 19 -15 23 -26 5 -15 -7 4 -8 3 -4 -4 4 -6 14 -8 23 -5 12 5 14 3 8 -7 -6
-10 -2 -12 18 -8 20 4 27 0 31 -16 6 -18 8 -19 19 -6 16 19 47 22 40 4 -3 -8
-9 -11 -14 -8 -5 3 -9 1 -9 -5 0 -5 9 -9 19 -8 11 0 18 4 16 7 -2 4 2 7 10 7
9 0 14 -7 13 -15 -2 -8 5 -16 15 -17 9 -2 15 1 11 6 -3 5 -10 6 -16 3 -7 -4
-8 -2 -4 4 8 13 36 5 36 -12 0 -6 5 -4 10 4 6 10 10 11 10 3 0 -7 7 -13 16
-13 8 0 12 4 9 10 -3 5 -1 10 4 10 6 0 11 -7 11 -15 0 -8 5 -15 11 -15 5 0 8
4 5 8 -3 5 1 9 9 9 10 0 11 -5 5 -17 -12 -23 29 -25 47 -2 12 16 13 16 7 0 -7
-21 11 -24 19 -4 6 14 30 16 43 3 4 -3 -3 -5 -15 -2 -11 2 -21 0 -21 -6 0 -6
70 -8 179 -7 99 2 179 7 178 12 -1 5 4 11 12 14 9 3 11 0 6 -8 -6 -9 -4 -11 4
-6 7 5 10 15 6 23 -4 13 -3 14 10 3 12 -10 15 -10 15 1 0 9 3 10 8 3 11 -16
51 -12 44 5 -4 10 -1 12 9 6 13 -8 49 -15 49 -9 0 1 -8 11 -17 20 -16 16 -16
17 -1 12 9 -4 19 -4 22 0 11 10 37 11 30 1 -3 -5 -10 -7 -15 -4 -5 3 -6 -1 -3
-9 5 -12 8 -12 23 2 10 9 17 20 15 23 -2 3 10 3 27 1 18 -3 29 0 29 7 0 7 -5
9 -12 5 -7 -4 -8 -3 -4 5 4 6 12 9 17 6 5 -4 9 -1 9 4 0 6 5 11 11 11 5 0 7
-5 3 -11 -4 -7 -1 -10 7 -7 8 3 13 12 12 19 -2 9 5 15 16 15 16 0 18 -3 8 -16
-11 -13 -10 -13 6 -1 9 7 17 10 17 6 0 -4 7 -2 15 5 12 10 13 16 3 28 -8 10
-9 13 -1 9 14 -9 45 2 38 13 -3 5 0 12 6 16 7 4 9 3 5 -4 -3 -6 -2 -13 4 -17
5 -3 10 -1 10 5 0 6 5 8 13 4 9 -6 9 -5 -1 8 -10 13 -9 15 14 12 18 -2 24 2
20 11 -3 10 2 12 17 10 21 -4 21 -4 3 10 -18 13 -16 14 16 12 26 -2 35 0 31
10 -3 7 -10 10 -17 6 -6 -3 -7 -2 -3 2 12 14 37 15 37 2 0 -7 10 3 21 21 19
28 30 36 50 34 3 -1 5 9 5 21 -1 16 5 22 19 22 11 0 21 8 23 18 2 9 10 17 17
17 8 0 17 5 21 12 5 7 2 9 -9 5 -11 -4 -14 -2 -11 8 4 11 12 12 32 4 l27 -9
-25 19 c-22 17 -22 20 -5 17 12 -2 24 5 31 18 6 12 15 20 21 19 6 -1 9 9 7 23
-2 20 0 23 11 14 10 -8 15 -8 21 1 4 8 3 9 -4 5 -7 -4 -12 -2 -12 3 0 10 14
15 33 12 5 -1 6 3 2 8 -3 6 -13 7 -23 4 -13 -4 -13 -2 3 10 11 8 24 13 28 10
5 -3 4 4 -3 17 -11 20 -10 21 10 10 20 -11 21 -10 10 10 -7 13 -8 20 -2 16 5
-3 16 2 23 11 8 10 9 14 2 10 -8 -5 -11 -1 -10 12 1 16 4 18 16 8 12 -10 13
-9 1 13 -12 22 -11 24 2 13 15 -13 28 -8 28 11 0 6 -5 4 -10 -4 -7 -11 -10
-11 -10 -2 0 7 10 17 23 22 19 8 10 15 -15 11 -13 -2 -9 6 9 20 15 12 16 12 8
-1 -8 -13 -6 -13 8 -1 9 7 15 17 12 21 -7 12 6 41 15 35 5 -3 6 5 2 17 -4 16
-2 19 8 13 10 -6 11 -4 4 6 -14 22 -12 58 3 52 11 -4 11 -9 1 -22 -10 -13 -10
-14 2 -4 18 16 22 43 7 43 -8 0 -7 4 2 9 8 5 12 19 9 34 -4 18 -1 24 9 20 7
-3 13 0 13 6 0 6 -4 11 -10 11 -5 0 -10 5 -10 11 0 5 5 7 12 3 7 -5 8 -3 2 7
-11 18 -13 60 -2 53 11 -7 10 9 -2 24 -6 6 -7 10 -4 7 4 -3 12 0 19 5 8 7 12
5 12 -5 0 -8 -5 -11 -11 -8 -6 4 -5 0 1 -9 7 -8 9 -19 5 -24 -4 -5 -3 -5 3 -1
5 4 10 35 11 67 1 50 -1 58 -13 49 -11 -9 -12 -8 -7 5 3 9 10 16 14 16 4 0 7
19 6 43 -1 29 -5 41 -14 39 -8 -1 -11 2 -7 8 3 6 10 8 15 5 5 -3 8 8 8 24 -1
19 -5 28 -12 24 -8 -5 -7 -2 0 8 13 16 14 120 2 113 -5 -3 -11 8 -14 25 -4 17
-9 31 -13 31 -9 0 -8 82 1 96 10 15 -27 48 -44 39 -7 -4 -2 3 12 15 14 12 21
20 15 17 -13 -6 -38 20 -26 28 18 10 -14 85 -36 85 -14 0 -16 8 -15 53 1 23
-2 26 -13 17 -10 -8 -15 -8 -21 1 -4 7 -3 9 3 6 6 -4 13 0 16 8 4 9 1 12 -9 8
-17 -6 -19 8 -2 25 9 9 6 11 -11 7 -12 -2 -19 0 -16 6 4 5 2 9 -3 9 -6 0 -13
7 -16 16 -5 14 -4 15 8 5 11 -9 16 -9 22 1 4 7 4 10 0 6 -13 -11 -59 41 -52
59 6 14 4 14 -11 2 -11 -9 -14 -10 -9 -1 4 7 2 12 -4 12 -6 0 -8 5 -5 10 4 6
11 7 17 4 6 -4 8 -2 5 3 -4 6 -19 9 -34 7 -24 -4 -25 -3 -8 5 16 8 17 10 4 10
-9 1 -20 9 -24 19 -5 14 -4 15 6 5 7 -7 18 -13 23 -13 6 0 1 7 -11 15 -12 8
-27 13 -35 12 -7 -2 -10 -2 -5 0 11 7 8 43 -4 43 -5 0 -7 -4 -4 -10 3 -5 1
-10 -6 -10 -6 0 -9 8 -6 20 3 11 0 18 -7 17 -6 -1 -10 4 -8 12 2 11 0 12 -11
3 -10 -9 -17 -7 -30 8 -9 11 -13 20 -7 20 5 0 14 -8 19 -17 6 -10 10 -13 10
-8 0 12 -21 41 -31 43 -5 1 -13 2 -19 2 -8 0 -7 6 2 17 13 15 12 15 -8 5 -16
-9 -24 -9 -29 0 -5 7 -3 8 6 3 9 -6 11 -4 5 4 -4 7 -16 10 -27 8 -16 -4 -17
-3 -7 9 6 7 16 11 22 7 6 -3 7 -1 3 5 -5 9 -13 9 -27 2 -10 -6 -20 -8 -20 -5
-1 3 -2 11 -3 18 -1 6 -8 11 -15 9 -9 -2 -11 3 -7 14 6 15 4 15 -11 3 -15 -12
-16 -12 -10 4 4 11 3 16 -3 12 -6 -3 -13 1 -16 9 -3 9 -10 16 -16 16 -5 0 -6
-6 -2 -12 4 -7 -2 -5 -13 5 -11 9 -23 14 -27 10 -4 -5 -7 -3 -6 2 5 23 -1 34
-18 30 -10 -2 -25 1 -33 7 -11 8 -10 9 4 4 9 -3 17 -1 17 4 0 6 -12 10 -26 10
-14 0 -23 4 -20 8 4 7 -13 11 -61 13 -15 1 -23 7 -23 19 0 17 -17 29 -48 36
-6 1 -10 -1 -7 -5 2 -4 -2 -8 -10 -8 -8 0 -12 4 -9 9 3 4 -2 8 -11 8 -10 0
-13 -5 -9 -12 4 -8 0 -7 -12 2 -10 8 -34 23 -51 33 -32 17 -33 17 -34 0 0 -14
-2 -13 -10 5 -5 13 -6 29 -2 34 4 7 1 8 -6 4 -7 -5 -10 -14 -7 -22 3 -8 0 -11
-11 -7 -8 3 -19 0 -25 -8 -8 -11 -9 -10 -4 3 3 11 -2 21 -12 27 -24 13 -432
13 -432 0 0 -6 5 -7 10 -4 6 3 10 2 10 -4 0 -5 -9 -9 -20 -8 -12 1 -18 7 -16
14 3 7 1 13 -4 13 -6 0 -10 -4 -10 -10 0 -5 -5 -10 -11 -10 -5 0 -8 4 -5 8 3
5 -1 9 -9 9 -13 0 -13 -2 -1 -16z m156 -1 c0 -5 -2 -10 -4 -10 -3 0 -8 5 -11
10 -3 6 -1 10 4 10 6 0 11 -4 11 -10z m300 0 c0 -5 -5 -10 -11 -10 -5 0 -7 5
-4 10 3 6 8 10 11 10 2 0 4 -4 4 -10z m275 -70 c3 -5 1 -10 -4 -10 -6 0 -11 5
-11 10 0 6 2 10 4 10 3 0 8 -4 11 -10z m-1365 -300 c-8 -5 -19 -10 -25 -10 -5
0 -3 5 5 10 8 5 20 10 25 10 6 0 3 -5 -5 -10z m-270 -410 c0 -5 -7 -10 -16
-10 -8 0 -12 5 -9 10 3 6 10 10 16 10 5 0 9 -4 9 -10z m2353 -23 c13 -20 13
-24 1 -24 -8 0 -12 2 -9 5 2 3 0 13 -6 23 -14 27 -4 24 14 -4z m52 -137 c3 -5
1 -10 -4 -10 -6 0 -11 5 -11 10 0 6 2 10 4 10 3 0 8 -4 11 -10z m35 -221 c0
-5 -4 -9 -8 -9 -5 0 -9 7 -9 15 0 8 4 12 9 9 4 -3 8 -9 8 -15z m0 -159 c0 -5
-5 -10 -11 -10 -5 0 -7 5 -4 10 3 6 8 10 11 10 2 0 4 -4 4 -10z m-97 -425 c-3
-9 -8 -14 -10 -11 -3 3 -2 9 2 15 9 16 15 13 8 -4z m-369 -537 c-3 -4 -11 -5
-19 -1 -21 7 -19 12 4 10 11 0 18 -5 15 -9z m-204 -142 c0 -3 -4 -8 -10 -11
-5 -3 -10 -1 -10 4 0 6 5 11 10 11 6 0 10 -2 10 -4z m-392 -120 c-10 -7 -14
-17 -10 -21 4 -5 1 -5 -7 0 -12 7 -11 10 4 22 24 17 36 17 13 -1z m-398 -16
c0 -5 -5 -10 -11 -10 -5 0 -7 5 -4 10 3 6 8 10 11 10 2 0 4 -4 4 -10z m340 0
c0 -5 -2 -10 -4 -10 -3 0 -8 5 -11 10 -3 6 -1 10 4 10 6 0 11 -4 11 -10z"/>
<path d="M1680 2557 c0 -2 6 -10 14 -16 11 -9 16 -9 22 1 4 7 4 10 -1 6 -4 -4
-14 -3 -22 3 -7 6 -13 9 -13 6z"/>
<path d="M1821 2494 c0 -11 3 -14 6 -6 3 7 2 16 -1 19 -3 4 -6 -2 -5 -13z"/>
<path d="M610 2401 c0 -7 -5 -9 -12 -5 -7 5 -8 3 -3 -5 5 -9 10 -10 18 -2 6 6
8 14 4 18 -4 3 -7 1 -7 -6z"/>
<path d="M1995 2400 c3 -5 8 -10 11 -10 2 0 4 5 4 10 0 6 -5 10 -11 10 -5 0
-7 -4 -4 -10z"/>
<path d="M2477 1829 c7 -7 15 -10 18 -7 3 3 -2 9 -12 12 -14 6 -15 5 -6 -5z"/>
<path d="M2567 1565 c-4 -8 -3 -16 1 -19 4 -3 9 4 9 15 2 23 -3 25 -10 4z"/>
<path d="M2563 1055 c0 -8 4 -12 9 -9 5 3 6 10 3 15 -9 13 -12 11 -12 -6z"/>
<path d="M218 613 c7 -3 16 -2 19 1 4 3 -2 6 -13 5 -11 0 -14 -3 -6 -6z"/>
<path d="M374 398 c-4 -7 -3 -10 1 -5 5 4 20 -3 34 -15 l26 -23 -24 28 c-28
31 -28 31 -37 15z"/>
<path d="M1057 9 c7 -7 15 -10 18 -7 3 3 -2 9 -12 12 -14 6 -15 5 -6 -5z"/>
</g>
</svg>
